<svg width="46" height="49" xmlns="http://www.w3.org/2000/svg" xmlns:xlink="http://www.w3.org/1999/xlink" xml:space="preserve" overflow="hidden"><g transform="translate(-82 -19)"><path d="M35.4583 35.9375 29.7083 35.9375 29.7083 31.625 35.4583 31.625 35.4583 35.9375ZM25.875 35.9375 20.125 35.9375 20.125 31.625 25.875 31.625 25.875 35.9375ZM16.2917 35.9375 10.5417 35.9375 10.5417 31.625 16.2917 31.625 16.2917 35.9375ZM26.3542 26.3542 26.3542 19.6458 13.4167 26.3542 11.9792 6.70833 8.14583 6.70833 6.70833 26.3542 6.70833 39.2917 39.2917 39.2917 39.2917 26.3542 39.2917 19.6458 26.3542 26.3542Z" fill="#7F7F7F" transform="matrix(1 0 0 1.06522 82 19)"/></g></svg>