<svg width="28" height="28" xmlns="http://www.w3.org/2000/svg" xmlns:xlink="http://www.w3.org/1999/xlink" xml:space="preserve" overflow="hidden"><g transform="translate(-80 -184)"><path d="M94 186.917C87.875 186.917 82.9167 191.875 82.9167 198 82.9167 204.125 87.875 209.083 94 209.083 100.125 209.083 105.083 204.125 105.083 198 105.083 191.875 100.125 186.917 94 186.917ZM94 207.917C88.5458 207.917 84.0833 203.454 84.0833 198 84.0833 197.854 84.0833 197.738 84.0833 197.592L84.4917 197.067C84.6083 196.921 84.7833 196.833 84.9583 196.833L85.95 196.833C86.0667 196.833 86.1542 196.892 86.2125 197.008L87.2625 199.108C87.2917 199.167 87.3208 199.196 87.35 199.225L87.7 199.458C87.9042 199.575 88.1667 199.458 88.1667 199.225L88.1667 198.262C88.1667 198.117 88.225 197.971 88.3417 197.854L89.1 197.096C89.2167 196.979 89.4208 196.979 89.5375 197.125L90.4125 198.233C90.4708 198.292 90.5583 198.35 90.6458 198.35L90.85 198.35C90.9958 198.35 91.1417 198.408 91.2583 198.525L91.4917 198.758C91.6083 198.875 91.7542 198.933 91.9 198.933L91.9583 198.933C92.1333 198.933 92.25 198.817 92.25 198.642L92.25 197.942C92.25 197.825 92.1917 197.738 92.075 197.679L91.8125 197.562C91.725 197.504 91.6375 197.417 91.6375 197.3L91.6375 196.833C91.6375 196.658 91.7542 196.542 91.9292 196.542L92.6583 196.542C92.7458 196.542 92.8333 196.483 92.8917 196.425L93.3 195.812C93.3583 195.725 93.3875 195.608 93.3875 195.492L93.3875 194.879C93.3875 194.821 93.3875 194.792 93.3583 194.733L93.1542 193.858C93.125 193.712 93.1833 193.596 93.3 193.538L93.4458 193.479C93.5917 193.421 93.7375 193.45 93.825 193.567 93.825 193.567 94.0875 194.121 94.2625 194.238 94.3208 194.267 94.4958 194.296 94.5542 194.238 94.7292 194.062 94.6708 193.479 94.6125 193.1 94.5833 192.896 94.6708 192.692 94.8458 192.546L95.6042 191.962C95.6917 191.904 95.7208 191.817 95.7208 191.729L95.7208 191.583C95.7208 191.408 95.8375 191.292 96.0125 191.292 96.1875 191.292 96.3042 191.175 96.3042 191L96.3042 190.942C96.3042 190.796 96.2167 190.679 96.0708 190.65L95.5458 190.533C95.3417 190.475 95.2542 190.242 95.3708 190.067L95.7208 189.6C95.8958 189.367 96.1583 189.25 96.4208 189.25L97.325 189.25C97.5583 189.25 97.7625 189.104 97.85 188.9 101.438 190.417 103.917 193.917 103.917 198 103.917 203.454 99.4542 207.917 94 207.917Z" fill="#595959" fill-opacity="0.4"/><path d="M98.9875 203.95C98.9583 203.892 98.9292 203.804 98.8708 203.746L97.7333 202.025C97.5875 201.792 97.2083 201.879 97.2083 202.171L97.2083 202.375C97.2083 202.55 97.0917 202.667 96.9167 202.667L96.8 202.667C96.6833 202.667 96.5958 202.608 96.5375 202.492L96.3042 201.996C96.1875 201.792 95.8958 201.792 95.7792 201.996L95.5458 202.258C95.4875 202.317 95.4 202.346 95.3417 202.346L95.1375 202.346C94.9917 202.346 94.8458 202.404 94.7292 202.521L93.5625 203.454C93.3292 203.658 93.2708 204.008 93.4458 204.242L94.2042 205.496C94.4083 205.817 94.8458 205.875 95.1083 205.613L95.6625 205.058C95.8667 204.854 96.2167 204.825 96.45 205.029L97.4125 205.817C97.4708 205.846 97.5292 205.875 97.5875 205.875L98.375 205.875C98.55 205.875 98.6667 205.758 98.6667 205.583L98.6667 205.175C98.6667 205.058 98.725 204.971 98.8417 204.913L99.0458 204.825C99.1625 204.767 99.25 204.621 99.1917 204.475L98.9875 203.95Z" fill="#595959" fill-opacity="0.4"/><path d="M95.75 200.042 96.4792 201.004C96.5667 201.121 96.7125 201.15 96.8292 201.092L97.2083 200.917 97.7042 201.092C97.8792 201.15 98.0833 201.004 98.0833 200.829L98.0833 200.829C98.0833 200.712 98.025 200.625 97.9375 200.567L96.6833 199.808C96.6542 199.75 96.5958 199.75 96.5375 199.75L95.75 199.75 95.75 200.042Z" fill="#595959" fill-opacity="0.4"/><path d="M93.5042 200.275 93.6792 199.633C93.7083 199.546 93.6792 199.429 93.5917 199.371 93.5042 199.283 93.3292 199.254 93.2125 199.342L92.6292 199.779C92.4542 199.896 92.4833 200.188 92.6875 200.275L93.0958 200.479C93.2708 200.538 93.4458 200.45 93.5042 200.275Z" fill="#595959" fill-opacity="0.4"/><path d="M90.7042 199.604C90.5875 199.517 90.4417 199.546 90.325 199.633L90.2083 199.75 91.9292 201.179C91.9583 201.208 91.9875 201.208 92.0167 201.238L92.6583 201.442C92.775 201.471 92.8917 201.442 92.95 201.383L93.125 201.208C91.9 200.858 90.7042 199.604 90.7042 199.604Z" fill="#595959" fill-opacity="0.4"/><path d="M94.875 195.083C95.6625 194.558 96.5667 193.946 96.3333 193.042 96.3042 192.983 96.0708 192.983 96.0417 193.042 95.925 193.567 95.8083 194.004 94.5833 194.792 94.525 194.85 94.7583 195.142 94.875 195.083Z" fill="#595959" fill-opacity="0.4"/></g></svg>