<svg width="27" height="27" xmlns="http://www.w3.org/2000/svg" xmlns:xlink="http://www.w3.org/1999/xlink" xml:space="preserve" overflow="hidden"><g transform="translate(-202 -561)"><path d="M222.25 570.787 222.25 566.062 220 566.062 220 568.65 215.5 564.375 215.5 564.375 203.688 575.625 204.953 576.694 215.5 566.681 215.5 566.681 226.047 576.694 227.312 575.625Z" fill="#595959" fill-opacity="0.4"/><path d="M207.062 576.272 207.062 584.625 213.812 584.625 213.812 577.594 217.188 577.594 217.188 584.625 223.938 584.625 223.938 576.272 215.5 568.256 207.062 576.272ZM212.125 580.969 208.75 580.969 208.75 577.594 212.125 577.594 212.125 580.969ZM218.875 577.594 222.25 577.594 222.25 580.969 218.875 580.969 218.875 577.594Z" fill="#595959" fill-opacity="0.4"/></g></svg>