<svg width="27" height="27" xmlns="http://www.w3.org/2000/svg" xmlns:xlink="http://www.w3.org/1999/xlink" xml:space="preserve" overflow="hidden"><g transform="translate(-202 -561)"><path d="M217.402 576.553C217.719 576.861 217.726 577.367 217.419 577.684 217.413 577.689 217.408 577.695 217.402 577.7L216.029 578.152 215.787 577.91 216.239 576.537C216.567 576.226 217.083 576.233 217.402 576.553ZM223.607 568.265 215.676 576.214 214.656 579.283 217.742 578.265 225.674 570.334Z" fill="#595959" fill-opacity="0.4"/><path d="M227.402 567.684 226.255 566.538C226.006 566.283 225.599 566.279 225.345 566.527 225.341 566.531 225.338 566.534 225.334 566.538L224.203 567.668 226.255 569.719 227.386 568.588C227.639 568.365 227.664 567.978 227.441 567.725 227.428 567.711 227.416 567.697 227.402 567.684Z" fill="#595959" fill-opacity="0.4"/><path d="M209.312 579.281 213.768 579.281 214.141 578.156 209.312 578.156 209.312 579.281Z" fill="#595959" fill-opacity="0.4"/><path d="M209.312 572.531 218.157 572.531 219.28 571.406 209.312 571.406 209.312 572.531Z" fill="#595959" fill-opacity="0.4"/><path d="M221.688 575.513 221.688 584.062 207.625 584.062 207.625 566.625 210.719 566.625 210.719 568.312 218.594 568.312 218.594 566.625 221.688 566.625 221.688 568.994 223.009 567.668 223.009 567.668 223.057 567.62 223.375 567.303 223.375 566.062C223.375 565.441 222.871 564.938 222.25 564.938L217.469 564.938 217.469 564.375C217.469 563.754 216.965 563.25 216.344 563.25L212.969 563.25C212.347 563.25 211.844 563.754 211.844 564.375L211.844 564.938 207.062 564.938C206.441 564.938 205.938 565.441 205.938 566.062L205.938 584.625C205.938 585.246 206.441 585.75 207.062 585.75L222.25 585.75C222.871 585.75 223.375 585.246 223.375 584.625L223.375 573.825ZM214.055 564.618C214.214 564.459 214.431 564.371 214.656 564.375 215.122 564.375 215.5 564.753 215.5 565.219 215.5 565.685 215.122 566.062 214.656 566.062 214.19 566.062 213.812 565.685 213.812 565.219 213.809 564.994 213.896 564.777 214.055 564.618Z" fill="#595959" fill-opacity="0.4"/><path d="M209.312 575.906 214.782 575.906 215.905 574.781 209.312 574.781 209.312 575.906Z" fill="#595959" fill-opacity="0.4"/></g></svg>