<svg width="28" height="28" xmlns="http://www.w3.org/2000/svg" xmlns:xlink="http://www.w3.org/1999/xlink" xml:space="preserve" overflow="hidden"><g transform="translate(-80 -299)"><path d="M91.375 303.375C91.375 304.503 90.4609 305.417 89.3333 305.417 88.2057 305.417 87.2917 304.503 87.2917 303.375 87.2917 302.247 88.2057 301.333 89.3333 301.333 90.4609 301.333 91.375 302.247 91.375 303.375Z" fill="#595959" fill-opacity="0.4"/><path d="M100.708 303.375C100.708 304.503 99.7943 305.417 98.6667 305.417 97.5391 305.417 96.625 304.503 96.625 303.375 96.625 302.247 97.5391 301.333 98.6667 301.333 99.7943 301.333 100.708 302.247 100.708 303.375Z" fill="#595959" fill-opacity="0.4"/><path d="M104.179 314.196 102.517 308.042C102.458 307.867 102.371 307.692 102.254 307.575 101.7 306.992 101 306.554 100.242 306.292 99.7458 306.087 99.2208 306 98.6667 306 98.1125 306 97.5875 306.087 97.0917 306.263 96.3042 306.525 95.6333 306.962 95.0792 307.546 94.9625 307.692 94.875 307.837 94.8167 308.013L94 311.075 93.1833 308.042C93.125 307.867 93.0375 307.692 92.9208 307.575 92.3667 306.992 91.6667 306.554 90.9083 306.292 90.4125 306.087 89.8875 306 89.3333 306 88.7792 306 88.2542 306.087 87.7583 306.263 86.9708 306.525 86.3 306.962 85.7458 307.546 85.6292 307.692 85.5417 307.837 85.4833 308.013L83.85 314.167C83.7333 314.633 83.9667 315.158 84.4625 315.275 84.5208 315.333 84.5792 315.333 84.6667 315.333 85.0458 315.333 85.3958 315.071 85.5125 314.692L87 309.092 87 315.625 87 324.667 88.75 324.667 88.75 315.625 89.9167 315.625 89.9167 324.667 91.6667 324.667 91.6667 315.625 91.6667 309.092 93.1542 314.663C93.2708 315.042 93.6208 315.304 94 315.304 94.0875 315.304 94.1458 315.304 94.2333 315.275 94.4958 315.188 94.7 314.983 94.7875 314.75 94.8167 314.75 96.3333 309.092 96.3333 309.092L96.3333 311.454 94.6708 317.667 96.3333 317.667 96.3333 324.667 98.0833 324.667 98.0833 317.667 99.25 317.667 99.25 324.667 101 324.667 101 317.667 102.662 317.667 101 311.454 101 309.092 102.488 314.663C102.604 315.042 102.954 315.304 103.333 315.304 103.421 315.304 103.479 315.304 103.567 315.275 104.033 315.158 104.296 314.663 104.179 314.196Z" fill="#595959" fill-opacity="0.4"/></g></svg>