<svg width="28" height="30" xmlns="http://www.w3.org/2000/svg" xmlns:xlink="http://www.w3.org/1999/xlink" xml:space="preserve" overflow="hidden"><g transform="translate(-84 -419)"><path d="M6.70833 4.08333 21.2917 4.08333 21.2917 23.9167 6.70833 23.9167 6.70833 4.08333ZM4.95833 25.6667 23.0417 25.6667 23.0417 2.33333 4.95833 2.33333 4.95833 25.6667Z" fill="#595959" fill-opacity="0.4" transform="matrix(1 0 0 1.07143 84 419)"/><path d="M8.75 5.83333 11.0833 5.83333 11.0833 8.16667 8.75 8.16667Z" fill="#595959" fill-opacity="0.4" transform="matrix(1 0 0 1.07143 84 419)"/><path d="M13.4167 6.41667 19.25 6.41667 19.25 7.58333 13.4167 7.58333Z" fill="#595959" fill-opacity="0.4" transform="matrix(1 0 0 1.07143 84 419)"/><path d="M8.75 10.5 11.0833 10.5 11.0833 12.8333 8.75 12.8333Z" fill="#595959" fill-opacity="0.4" transform="matrix(1 0 0 1.07143 84 419)"/><path d="M13.4167 11.0833 19.25 11.0833 19.25 12.25 13.4167 12.25Z" fill="#595959" fill-opacity="0.4" transform="matrix(1 0 0 1.07143 84 419)"/><path d="M8.75 15.1667 11.0833 15.1667 11.0833 17.5 8.75 17.5Z" fill="#595959" fill-opacity="0.4" transform="matrix(1 0 0 1.07143 84 419)"/><path d="M13.4167 15.75 19.25 15.75 19.25 16.9167 13.4167 16.9167Z" fill="#595959" fill-opacity="0.4" transform="matrix(1 0 0 1.07143 84 419)"/><path d="M8.75 19.8333 11.0833 19.8333 11.0833 22.1667 8.75 22.1667Z" fill="#595959" fill-opacity="0.4" transform="matrix(1 0 0 1.07143 84 419)"/><path d="M13.4167 20.4167 19.25 20.4167 19.25 21.5833 13.4167 21.5833Z" fill="#595959" fill-opacity="0.4" transform="matrix(1 0 0 1.07143 84 419)"/></g></svg>