<svg width="28" height="30" xmlns="http://www.w3.org/2000/svg" xmlns:xlink="http://www.w3.org/1999/xlink" xml:space="preserve" overflow="hidden"><g transform="translate(-80 -344)"><path d="M21.5833 21.875 18.0833 21.875 18.0833 19.25 21.5833 19.25 21.5833 21.875ZM15.75 21.875 12.25 21.875 12.25 19.25 15.75 19.25 15.75 21.875ZM9.91667 21.875 6.41667 21.875 6.41667 19.25 9.91667 19.25 9.91667 21.875ZM16.0417 16.0417 16.0417 11.9583 8.16667 16.0417 7.29167 4.08333 4.95833 4.08333 4.08333 16.0417 4.08333 23.9167 23.9167 23.9167 23.9167 16.0417 23.9167 11.9583 16.0417 16.0417Z" fill="#595959" fill-opacity="0.4" transform="matrix(1 0 0 1.07143 80 344)"/></g></svg>