<svg width="68" height="66" xmlns="http://www.w3.org/2000/svg" xmlns:xlink="http://www.w3.org/1999/xlink" xml:space="preserve" overflow="hidden"><g transform="translate(-1400 -669)"><path d="M26.8125 10.3125C26.8125 12.9704 24.6579 15.125 22 15.125 19.3421 15.125 17.1875 12.9704 17.1875 10.3125 17.1875 7.65463 19.3421 5.5 22 5.5 24.6579 5.5 26.8125 7.65463 26.8125 10.3125Z" fill="#7F7F7F" transform="matrix(1.0303 0 0 1 1400 669)"/><path d="M48.8125 10.3125C48.8125 12.9704 46.6579 15.125 44 15.125 41.3421 15.125 39.1875 12.9704 39.1875 10.3125 39.1875 7.65463 41.3421 5.5 44 5.5 46.6579 5.5 48.8125 7.65463 48.8125 10.3125Z" fill="#7F7F7F" transform="matrix(1.0303 0 0 1 1400 669)"/><path d="M56.9938 35.8187 53.075 21.3125C52.9375 20.9 52.7312 20.4875 52.4563 20.2125 51.15 18.8375 49.5 17.8062 47.7125 17.1875 46.5437 16.7062 45.3063 16.5 44 16.5 42.6937 16.5 41.4562 16.7062 40.2875 17.1187 38.4313 17.7375 36.85 18.7687 35.5438 20.1437 35.2687 20.4875 35.0625 20.8312 34.925 21.2437L33 28.4625 31.075 21.3125C30.9375 20.9 30.7313 20.4875 30.4562 20.2125 29.15 18.8375 27.5 17.8062 25.7125 17.1875 24.5438 16.7062 23.3063 16.5 22 16.5 20.6938 16.5 19.4562 16.7062 18.2875 17.1187 16.4312 17.7375 14.85 18.7687 13.5438 20.1437 13.2687 20.4875 13.0625 20.8312 12.925 21.2437L9.075 35.75C8.8 36.85 9.35 38.0875 10.5188 38.3625 10.6562 38.5 10.7937 38.5 11 38.5 11.8937 38.5 12.7188 37.8812 12.9937 36.9875L16.5 23.7875 16.5 39.1875 16.5 60.5 20.625 60.5 20.625 39.1875 23.375 39.1875 23.375 60.5 27.5 60.5 27.5 39.1875 27.5 23.7875 31.0062 36.9188C31.2812 37.8125 32.1063 38.4313 33 38.4313 33.2062 38.4313 33.3438 38.4313 33.55 38.3625 34.1688 38.1562 34.65 37.675 34.8563 37.125 34.925 37.125 38.5 23.7875 38.5 23.7875L38.5 29.3563 34.5812 44 38.5 44 38.5 60.5 42.625 60.5 42.625 44 45.375 44 45.375 60.5 49.5 60.5 49.5 44 53.4187 44 49.5 29.3563 49.5 23.7875 53.0062 36.9188C53.2812 37.8125 54.1062 38.4313 55 38.4313 55.2063 38.4313 55.3438 38.4313 55.55 38.3625 56.65 38.0875 57.2688 36.9188 56.9938 35.8187Z" fill="#7F7F7F" transform="matrix(1.0303 0 0 1 1400 669)"/></g></svg>