<svg width="29" height="29" xmlns="http://www.w3.org/2000/svg" xmlns:xlink="http://www.w3.org/1999/xlink" xml:space="preserve" overflow="hidden"><g transform="translate(-80 -482)"><path d="M94.5 485.021C88.1562 485.021 83.0208 490.156 83.0208 496.5 83.0208 502.844 88.1562 507.979 94.5 507.979 100.844 507.979 105.979 502.844 105.979 496.5 105.979 490.156 100.844 485.021 94.5 485.021ZM93.8958 488.042C94.7417 488.042 95.4062 488.706 95.4062 489.552 95.4062 490.398 94.7417 491.062 93.8958 491.062 93.05 491.062 92.3854 490.398 92.3854 489.552 92.3854 488.706 93.05 488.042 93.8958 488.042ZM97.5208 504.958 91.4792 504.958 91.4792 503.146 93.5938 503.146 93.5938 494.083 91.7812 494.083 91.7812 492.271 95.4062 492.271 95.4062 494.083 95.4062 503.146 97.5208 503.146 97.5208 504.958Z" fill="#595959" fill-opacity="0.4"/></g></svg>