<svg width="28" height="34" xmlns="http://www.w3.org/2000/svg" xmlns:xlink="http://www.w3.org/1999/xlink" xml:space="preserve" overflow="hidden"><g transform="translate(-80 -235)"><path d="M20.125 21 20.475 18.6667 23.8875 18.6667 24.2375 21 20.125 21ZM15.75 15.1667 16.1 12.8333 19.5125 12.8333 19.8625 15.1667 15.75 15.1667ZM12.8333 11.0833 14.5833 11.0833 13.7083 16.9167 12.8333 11.0833ZM11.9583 21 12.3083 18.6667 15.7208 18.6667 16.0708 21 11.9583 21ZM7.58333 15.1667 7.93333 12.8333 11.3458 12.8333 11.6958 15.1667 7.58333 15.1667ZM12.0167 7 15.4292 7 15.7792 9.33333 11.6667 9.33333 12.0167 7ZM3.79167 21 4.14167 18.6667 7.55417 18.6667 7.90417 21 3.79167 21ZM25.375 16.9167 21.875 16.9167 21 11.0833 17.7917 11.0833 16.9167 5.25 10.5 5.25 9.625 11.0833 6.41667 11.0833 5.54167 16.9167 2.625 16.9167 1.75 22.75 9.91667 22.75 9.04167 16.9167 10.7917 16.9167 9.91667 22.75 18.0833 22.75 17.2083 16.9167 18.9583 16.9167 18.0833 22.75 26.25 22.75 25.375 16.9167Z" fill="#595959" fill-opacity="0.4" transform="matrix(1 0 0 1.21429 80 235)"/></g></svg>